<svg width="1600" height="900" viewBox="0 0 1600 900" fill="none" xmlns="http://www.w3.org/2000/svg">
  <rect width="1600" height="900" fill="#EFF4F8"/>
  <rect y="546" width="1600" height="354" fill="#B89F8D"/>
  <rect x="112" y="108" width="472" height="314" rx="30" fill="#FCFDFE"/>
  <rect x="146" y="142" width="404" height="246" rx="20" fill="url(#view6)"/>
  <rect x="338" y="142" width="16" height="246" fill="#E4EAEE"/>
  <rect x="146" y="262" width="404" height="10" fill="#E4EAEE"/>
  <rect x="1026" y="126" width="252" height="184" rx="26" fill="#F8FAFC"/>
  <rect x="1060" y="158" width="186" height="18" rx="9" fill="#CDD6DE"/>
  <rect x="1060" y="202" width="186" height="18" rx="9" fill="#E1E8EE"/>
  <rect x="360" y="432" width="706" height="190" rx="48" fill="url(#sofa6)"/>
  <rect x="420" y="388" width="200" height="62" rx="31" fill="#6D7884"/>
  <rect x="826" y="388" width="200" height="62" rx="31" fill="#8793A1"/>
  <rect x="450" y="488" width="120" height="86" rx="24" fill="#E7EEF3"/>
  <rect x="648" y="500" width="146" height="72" rx="24" fill="#BBC9D4"/>
  <rect x="862" y="488" width="120" height="86" rx="24" fill="#F4F8FB"/>
  <ellipse cx="798" cy="706" rx="332" ry="98" fill="url(#rug6)"/>
  <rect x="648" y="622" width="304" height="92" rx="30" fill="#FDFFFF"/>
  <rect x="706" y="650" width="192" height="16" rx="8" fill="#CCD7DE"/>
  <rect x="744" y="678" width="118" height="12" rx="6" fill="#E1E9EE"/>
  <rect x="696" y="716" width="12" height="48" rx="6" fill="#6D6A65"/>
  <rect x="892" y="716" width="12" height="48" rx="6" fill="#6D6A65"/>
  <rect x="1240" y="484" width="32" height="160" rx="16" fill="#6E665D"/>
  <ellipse cx="1256" cy="450" rx="68" ry="68" fill="#8DA7A3"/>
  <ellipse cx="1304" cy="494" rx="50" ry="50" fill="#6E8E88"/>
  <circle cx="752" cy="110" r="68" fill="#E3EEF5"/>
  <rect x="740" y="122" width="24" height="188" rx="12" fill="#6E706E"/>
  <defs>
    <linearGradient id="view6" x1="348" y1="142" x2="348" y2="388" gradientUnits="userSpaceOnUse">
      <stop stop-color="#D4EEFF"/>
      <stop offset="1" stop-color="#FBFEFF"/>
    </linearGradient>
    <linearGradient id="sofa6" x1="713" y1="432" x2="713" y2="622" gradientUnits="userSpaceOnUse">
      <stop stop-color="#59616A"/>
      <stop offset="1" stop-color="#3B434B"/>
    </linearGradient>
    <linearGradient id="rug6" x1="466" y1="706" x2="1130" y2="706" gradientUnits="userSpaceOnUse">
      <stop stop-color="#DDEBF2"/>
      <stop offset="0.5" stop-color="#FCFFFF"/>
      <stop offset="1" stop-color="#E8ECEA"/>
    </linearGradient>
  </defs>
</svg>