<svg width="1600" height="900" viewBox="0 0 1600 900" fill="none" xmlns="http://www.w3.org/2000/svg">
<rect width="1600" height="900" fill="#F7F5F0"/>
<rect y="598" width="1600" height="302" fill="#C8A27D"/>
<rect x="128" y="120" width="1344" height="430" rx="34" fill="#FBFAF8"/>
<rect x="164" y="158" width="534" height="250" rx="24" fill="url(#a)"/>
<rect x="418" y="158" width="18" height="250" fill="#EBE6DE"/>
<rect x="164" y="276" width="534" height="12" fill="#EBE6DE"/>
<rect x="778" y="188" width="586" height="266" rx="26" fill="#EFE9DE"/>
<rect x="778" y="470" width="586" height="74" rx="20" fill="#B88F69"/>
<rect x="810" y="220" width="162" height="192" rx="20" fill="#FAF8F3"/>
<rect x="1000" y="220" width="162" height="192" rx="20" fill="#F8F4EC"/>
<rect x="1190" y="220" width="142" height="192" rx="20" fill="#F3E7D6"/>
<rect x="854" y="256" width="74" height="16" rx="8" fill="#D6C7B5"/>
<rect x="1044" y="256" width="74" height="16" rx="8" fill="#D6C7B5"/>
<rect x="1220" y="256" width="80" height="16" rx="8" fill="#CCB195"/>
<rect x="886" y="488" width="226" height="16" rx="8" fill="#E0D1C2"/>
<circle cx="1138" cy="500" r="18" fill="#D2B59B"/>
<ellipse cx="820" cy="714" rx="344" ry="84" fill="url(#b)"/>
<defs>
<linearGradient id="a" x1="431" y1="158" x2="431" y2="408" gradientUnits="userSpaceOnUse"><stop stop-color="#DBEEFF"/><stop offset="1" stop-color="#FFF8F1"/></linearGradient>
<linearGradient id="b" x1="476" y1="714" x2="1164" y2="714" gradientUnits="userSpaceOnUse"><stop stop-color="#ECE2D7"/><stop offset="0.5" stop-color="#FFFDFB"/><stop offset="1" stop-color="#E7DED1"/></linearGradient>
</defs>
</svg>