<svg width="1600" height="900" viewBox="0 0 1600 900" fill="none" xmlns="http://www.w3.org/2000/svg">
<rect width="1600" height="900" fill="#F2F5F7"/>
<rect y="706" width="1600" height="194" fill="#D7C5B3"/>
<rect x="98" y="98" width="1404" height="576" rx="36" fill="#FDFDFC"/>
<rect x="144" y="144" width="1312" height="484" rx="28" fill="url(#a)"/>
<path d="M144 430C334 396 482 510 674 476C872 442 1010 330 1220 364C1312 378 1380 410 1456 446V628H144V430Z" fill="#82CFE6" fill-opacity="0.8"/>
<path d="M144 490C320 464 474 536 652 512C838 486 1056 380 1266 412C1344 424 1402 448 1456 472V628H144V490Z" fill="#46A9CC" fill-opacity="0.75"/>
<rect x="510" y="144" width="22" height="484" fill="#E6EAE9"/>
<rect x="930" y="144" width="22" height="484" fill="#E6EAE9"/>
<rect x="144" y="378" width="1312" height="14" fill="#E6EAE9"/>
<rect x="184" y="584" width="52" height="122" rx="20" fill="#7D6B59"/>
<rect x="1364" y="584" width="52" height="122" rx="20" fill="#7D6B59"/>
<rect x="654" y="566" width="292" height="112" rx="30" fill="#F8FAFB"/>
<rect x="708" y="602" width="184" height="16" rx="8" fill="#CCDADF"/>
<rect x="754" y="632" width="92" height="12" rx="6" fill="#E1EBEE"/>
<defs>
<linearGradient id="a" x1="800" y1="144" x2="800" y2="628" gradientUnits="userSpaceOnUse"><stop stop-color="#D5ECFF"/><stop offset="0.55" stop-color="#F3FBFF"/><stop offset="1" stop-color="#FFF8F1"/></linearGradient>
</defs>
</svg>