<svg width="1600" height="900" viewBox="0 0 1600 900" fill="none" xmlns="http://www.w3.org/2000/svg">
<rect width="1600" height="900" fill="#F6F2EA"/>
<rect y="690" width="1600" height="210" fill="#C49F7E"/>
<rect x="100" y="106" width="1400" height="530" rx="36" fill="#FCFAF6"/>
<rect x="148" y="150" width="1304" height="442" rx="28" fill="url(#a)"/>
<path d="M148 448C320 396 514 486 692 454C886 420 1032 314 1234 350C1324 366 1398 402 1452 432V592H148V448Z" fill="#BCE5FF" fill-opacity="0.85"/>
<path d="M148 498C314 462 500 530 688 500C884 468 1096 372 1288 404C1354 416 1412 438 1452 456V592H148V498Z" fill="#70C6EA" fill-opacity="0.75"/>
<rect x="498" y="150" width="22" height="442" fill="#E6E0D7"/>
<rect x="926" y="150" width="22" height="442" fill="#E6E0D7"/>
<rect x="148" y="364" width="1304" height="14" fill="#E6E0D7"/>
<rect x="188" y="556" width="52" height="136" rx="20" fill="#7F6A57"/>
<rect x="1360" y="556" width="52" height="136" rx="20" fill="#7F6A57"/>
<defs>
<linearGradient id="a" x1="800" y1="150" x2="800" y2="592" gradientUnits="userSpaceOnUse"><stop stop-color="#DDEEFF"/><stop offset="0.52" stop-color="#F7FCFF"/><stop offset="1" stop-color="#FFF7ED"/></linearGradient>
</defs>
</svg>