<svg width="1600" height="900" viewBox="0 0 1600 900" fill="none" xmlns="http://www.w3.org/2000/svg">
<rect width="1600" height="900" fill="#F5EFE9"/>
<rect y="560" width="1600" height="340" fill="#C39D79"/>
<rect x="140" y="110" width="1320" height="420" rx="34" fill="#FBF8F4"/>
<rect x="188" y="154" width="420" height="250" rx="24" fill="#EFE3D6"/>
<rect x="230" y="196" width="336" height="166" rx="20" fill="url(#a)"/>
<rect x="702" y="160" width="620" height="78" rx="22" fill="#B78E69"/>
<rect x="720" y="250" width="168" height="182" rx="26" fill="#F8F2EA"/>
<rect x="926" y="250" width="168" height="182" rx="26" fill="#F6EBDD"/>
<rect x="1132" y="250" width="168" height="182" rx="26" fill="#FBF6EF"/>
<rect x="766" y="290" width="78" height="16" rx="8" fill="#D7C8B5"/>
<rect x="972" y="290" width="78" height="16" rx="8" fill="#D7C8B5"/>
<rect x="1180" y="290" width="72" height="16" rx="8" fill="#DCC9B4"/>
<ellipse cx="800" cy="710" rx="350" ry="88" fill="url(#b)"/>
<defs>
<linearGradient id="a" x1="398" y1="196" x2="398" y2="362" gradientUnits="userSpaceOnUse"><stop stop-color="#D8ECFF"/><stop offset="1" stop-color="#FFF9F2"/></linearGradient>
<linearGradient id="b" x1="450" y1="710" x2="1150" y2="710" gradientUnits="userSpaceOnUse"><stop stop-color="#EEDFD2"/><stop offset="0.5" stop-color="#FFF9F4"/><stop offset="1" stop-color="#E8DED4"/></linearGradient>
</defs>
</svg>